<?xml version="1.0" standalone="no"?><!DOCTYPE svg PUBLIC "-//W3C//DTD SVG 1.1//EN" "http://www.w3.org/Graphics/SVG/1.1/DTD/svg11.dtd"><svg t="1542512556361" class="icon" style="" viewBox="0 0 1024 1024" version="1.1" xmlns="http://www.w3.org/2000/svg" p-id="11733" xmlns:xlink="http://www.w3.org/1999/xlink" width="50" height="50"><defs><style type="text/css"></style></defs><path d="M434.921061 0C195.295476 0 0.4 194.895476 0.4 434.521061s194.895476 434.521061 434.521061 434.521061 434.521061-194.895476 434.521061-434.521061S674.546646 0 434.921061 0z m0 782.776911c-191.700468 0-345.060842-156.555382-345.060843-345.060842 0-191.700468 156.555382-345.060842 345.060843-345.060843s345.060842 156.555382 345.060842 345.060843c3.195008 188.50546-153.360374 345.060842-345.060842 345.060842zM1010.022465 945.722309l-140.580343-140.580343c-19.170047-19.170047-47.925117-19.170047-63.900156 0s-19.170047 47.925117 0 63.900156l140.580343 140.580343c19.170047 19.170047 47.925117 19.170047 63.900156 0s15.975039-47.925117 0-63.900156z" p-id="11734" fill="#4f4f5a"></path></svg>