<?xml version="1.0" standalone="no"?><!DOCTYPE svg PUBLIC "-//W3C//DTD SVG 1.1//EN" "http://www.w3.org/Graphics/SVG/1.1/DTD/svg11.dtd"><svg t="1542681375973" class="icon" style="" viewBox="0 0 1024 1024" version="1.1" xmlns="http://www.w3.org/2000/svg" p-id="31590" xmlns:xlink="http://www.w3.org/1999/xlink" width="70" height="70"><defs><style type="text/css"></style></defs><path d="M512 32c264.672 0 480 215.328 480 480S776.672 992 512 992 32 776.672 32 512 247.328 32 512 32m0-32C229.216 0 0 229.216 0 512s229.216 512 512 512 512-229.216 512-512S794.784 0 512 0z" p-id="31591" fill="#0a64be"></path><path d="M319.392 424.544a52.48 52.48 0 1 1 0-104.896 52.48 52.48 0 0 1 0 104.896z m0 139.84a52.48 52.48 0 1 1 0-104.896 52.48 52.48 0 0 1 0 104.896z m0 139.84a52.48 52.48 0 1 1 0-104.896 52.48 52.48 0 0 1 0 104.896z m436.992-305.888a8.96 8.96 0 0 1-8.736 8.736H415.52a8.96 8.96 0 0 1-8.736-8.736v-52.448a8.96 8.96 0 0 1 8.736-8.736h332.128a8.96 8.96 0 0 1 8.736 8.736v52.448z m0 139.84a8.96 8.96 0 0 1-8.736 8.736H415.52a8.96 8.96 0 0 1-8.736-8.736v-52.448a8.96 8.96 0 0 1 8.736-8.736h332.128a8.96 8.96 0 0 1 8.736 8.736v52.448z m0 139.84a8.96 8.96 0 0 1-8.736 8.736H415.52a8.96 8.96 0 0 1-8.736-8.736V625.6a8.96 8.96 0 0 1 8.736-8.768h332.128a8.96 8.96 0 0 1 8.736 8.768v52.416z" p-id="31592" fill="#0a64be"></path></svg>