<?xml version="1.0" standalone="no"?><!DOCTYPE svg PUBLIC "-//W3C//DTD SVG 1.1//EN" "http://www.w3.org/Graphics/SVG/1.1/DTD/svg11.dtd"><svg t="1542684924109" class="icon" style="" viewBox="0 0 1024 1024" version="1.1" xmlns="http://www.w3.org/2000/svg" p-id="42747" xmlns:xlink="http://www.w3.org/1999/xlink" width="70" height="70"><defs><style type="text/css"></style></defs><path d="M512 1018.666667C232.533333 1018.666667 5.333333 791.466667 5.333333 512S232.533333 5.333333 512 5.333333 1018.666667 232.533333 1018.666667 512 791.466667 1018.666667 512 1018.666667z m0-1002.666667C238.933333 16 16 238.933333 16 512S238.933333 1008 512 1008 1008 785.066667 1008 512 785.066667 16 512 16z" fill="#FFFFFF" p-id="42748"></path><path d="M512 666.666667c-85.333333 0-154.666667-69.333333-154.666667-154.666667V309.333333c0-8.533333 7.466667-16 16-16h277.333334c8.533333 0 16 7.466667 16 16v202.666667c0 85.333333-69.333333 154.666667-154.666667 154.666667z m-122.666667-341.333334V512c0 67.2 55.466667 122.666667 122.666667 122.666667S634.666667 579.2 634.666667 512V325.333333h-245.333334z" fill="#FFFFFF" p-id="42749"></path><path d="M650.666667 362.666667h117.333333v53.333333c0 65.066667-52.266667 117.333333-117.333333 117.333333V362.666667z" fill="#FFFFFF" p-id="42750"></path><path d="M650.666667 549.333333c-8.533333 0-16-7.466667-16-16V362.666667c0-8.533333 7.466667-16 16-16h117.333333c8.533333 0 16 7.466667 16 16v53.333333c0 73.6-59.733333 133.333333-133.333333 133.333333z m16-170.666666v137.6c48-7.466667 85.333333-50.133333 85.333333-100.266667v-37.333333h-85.333333z" fill="#FFFFFF" p-id="42751"></path><path d="M373.333333 362.666667H256v53.333333c0 65.066667 52.266667 117.333333 117.333333 117.333333V362.666667z" fill="#FFFFFF" p-id="42752"></path><path d="M373.333333 549.333333c-73.6 0-133.333333-59.733333-133.333333-133.333333v-53.333333c0-8.533333 7.466667-16 16-16h117.333333c8.533333 0 16 7.466667 16 16v170.666666c0 8.533333-7.466667 16-16 16z m-101.333333-170.666666V416c0 50.133333 37.333333 92.8 85.333333 100.266667V378.666667h-85.333333z" fill="#FFFFFF" p-id="42753"></path><path d="M400 768h224c3.2 0 5.333333 2.133333 5.333333 5.333333v21.333334c0 3.2-2.133333 5.333333-5.333333 5.333333h-224c-3.2 0-5.333333-2.133333-5.333333-5.333333v-21.333334c0-3.2 2.133333-5.333333 5.333333-5.333333z" fill="#FFFFFF" p-id="42754"></path><path d="M501.333333 661.333333h32v117.333334h-32z" fill="#FFFFFF" p-id="42755"></path></svg>