<?xml version="1.0" standalone="no"?><!DOCTYPE svg PUBLIC "-//W3C//DTD SVG 1.1//EN" "http://www.w3.org/Graphics/SVG/1.1/DTD/svg11.dtd"><svg t="1542680054102" class="icon" style="" viewBox="0 0 1024 1024" version="1.1" xmlns="http://www.w3.org/2000/svg" p-id="3171" xmlns:xlink="http://www.w3.org/1999/xlink" width="50" height="50"><defs><style type="text/css"></style></defs><path d="M512.8192 14.9504C238.7968 14.9504 16.384 237.1584 16.384 511.1808S238.7968 1007.616 512.8192 1007.616s496.4352-222.4128 496.4352-496.4352S786.8416 14.9504 512.8192 14.9504m0 960.9216c-258.048 0-464.6912-206.4384-464.6912-464.6912S254.5664 46.6944 512.8192 46.6944s464.6912 206.4384 464.6912 464.6912-206.6432 464.4864-464.6912 464.4864m214.4256-472.6784l-329.5232-190.6688c-3.8912-3.8912-7.9872-3.8912-11.8784 0-3.8912 0-7.9872 3.8912-7.9872 7.9872v381.1328c0 3.8912 3.8912 7.9872 3.8912 7.9872 3.8912 3.8912 7.9872 3.8912 11.8784 0l333.6192-190.6688c3.8912-3.8912 3.8912-3.8912 3.8912-7.9872 4.096-3.6864 0-7.7824-3.8912-7.7824m0 0z" p-id="3172" fill="#FFFFFF"></path></svg>