<?xml version="1.0" standalone="no"?><!DOCTYPE svg PUBLIC "-//W3C//DTD SVG 1.1//EN" "http://www.w3.org/Graphics/SVG/1.1/DTD/svg11.dtd"><svg t="1543208498937" class="icon" style="" viewBox="0 0 1024 1024" version="1.1" xmlns="http://www.w3.org/2000/svg" p-id="54592" xmlns:xlink="http://www.w3.org/1999/xlink" width="50" height="50"><defs><style type="text/css"></style></defs><path d="M665.224533 583.4752l-124.5184 121.2416 254.976 258.389333 125.44-124.8256z" fill="#0a64be" p-id="54593"></path><path d="M916.002133 386.218667l-57.480533 15.530666-47.0016 12.1856-33.723733-34.065066-34.5088-34.065067 12.526933-46.523733 12.4928-46.250667 46.728533-12.731733 57.309867-15.018667c11.741867-3.310933 32.017067-2.9696 29.457067-14.916267-1.536-4.061867-17.7152-20.138667-21.538134-22.698666a193.399467 193.399467 0 0 0-83.5584-39.150934 195.584 195.584 0 0 0-91.4432 2.56 198.075733 198.075733 0 0 0-120.832 92.535467 198.587733 198.587733 0 0 0-20.1728 150.016l1.024 2.56L128.341333 830.6688l125.201067 124.347733L684.032 526.5408a193.911467 193.911467 0 0 0 53.623467 12.731733 193.774933 193.774933 0 0 0 70.280533-5.870933c31.163733-8.123733 58.2656-23.893333 81.237333-43.485867a196.266667 196.266667 0 0 0 52.360534-75.025066l-25.531734-28.672z" fill="#0a64be" p-id="54594"></path><path d="M178.9952 543.061333l54.613333-52.599466 8.738134-8.328534-2.628267-22.801066 28.603733-21.538134 111.138134 110.592 125.508266-124.5184-111.4112-110.8992c3.584-6.621867 6.894933-13.2096 10.24-19.831466l0.477867-1.262934c5.12-10.922667 8.669867-22.1184 11.264-32.5632 7.68-12.970667 17.1008-21.879467 28.603733-27.477333 12.765867-5.8368 29.3888-7.645867 49.834667-6.109867l17.373867-36.625066c-31.709867-30.481067-67.959467-49.322667-105.506134-52.1216-34.474667-2.048-68.983467 9.386667-101.6832 36.864-7.168 3.037867-14.813867 6.075733-21.981866 9.898666-4.334933 2.048-8.157867 4.3008-11.741867 6.382934l-11.502933-10.888534c-2.423467-2.491733-7.509333-7.2704-15.2576-14.267733l-15.1552 14.267733-94.549334 94.856534a278.357333 278.357333 0 0 0-14.5408 15.598933l14.5408 14.404267 17.885867 16.861866-21.845333 19.729067-30.754134-2.730667-10.24 8.840534-54.3744 52.1216 144.349867 144.145066z" fill="#0a64be" p-id="54595"></path></svg>