<?xml version="1.0" standalone="no"?><!DOCTYPE svg PUBLIC "-//W3C//DTD SVG 1.1//EN" "http://www.w3.org/Graphics/SVG/1.1/DTD/svg11.dtd"><svg t="1543285301397" class="icon" style="" viewBox="0 0 1024 1024" version="1.1" xmlns="http://www.w3.org/2000/svg" p-id="23502" xmlns:xlink="http://www.w3.org/1999/xlink" width="50" height="50"><defs><style type="text/css"></style></defs><path d="M894.7 257H128.5c-35.2 0-64-28.8-64-64s28.8-64 64-64h766.3c35.2 0 64 28.8 64 64-0.1 35.2-28.9 64-64.1 64z" fill="#0963be" p-id="23503"></path><path d="M128.5 193m-64 0a64 64 0 1 0 128 0 64 64 0 1 0-128 0Z" fill="#0963be" p-id="23504"></path><path d="M894.7 576.1H128.5c-35.2 0-64-28.8-64-64s28.8-64 64-64h766.3c35.2 0 64 28.8 64 64-0.1 35.2-28.9 64-64.1 64z" fill="#0963be" p-id="23505"></path><path d="M128.5 512.1m-64 0a64 64 0 1 0 128 0 64 64 0 1 0-128 0Z" fill="#0963be" p-id="23506"></path><path d="M897 895.2H130.7c-35.2 0-64-28.8-64-64s28.8-64 64-64H897c35.2 0 64 28.8 64 64s-28.8 64-64 64z" fill="#0963be" p-id="23507"></path><path d="M130.7 831.2m-64 0a64 64 0 1 0 128 0 64 64 0 1 0-128 0Z" fill="#0963be" p-id="23508"></path></svg>