<?xml version="1.0" standalone="no"?><!DOCTYPE svg PUBLIC "-//W3C//DTD SVG 1.1//EN" "http://www.w3.org/Graphics/SVG/1.1/DTD/svg11.dtd"><svg t="1542681561490" class="icon" style="" viewBox="0 0 1024 1024" version="1.1" xmlns="http://www.w3.org/2000/svg" p-id="37385" xmlns:xlink="http://www.w3.org/1999/xlink" width="30" height="30"><defs><style type="text/css"></style></defs><path d="M425.311639 303.909661l173.502589 173.502589 34.650171 34.650172-34.650171 34.776038-0.053212-0.052189-173.449377 173.554778-34.776038-34.650171 173.565011-173.565011-173.565011-173.566035 34.776038-34.650171z m-320.79626 35.910885c22.176069-52.667523 54.054103-100.044554 94.752014-140.616598 40.697911-40.572044 87.948051-72.450079 140.616598-94.752014 54.558593-23.058159 112.517633-34.776038 172.241876-34.776038 59.598376 0 117.558439 11.717879 172.116009 34.776038 52.667523 22.301935 100.044554 54.17997 140.616598 94.87788 40.572044 40.572044 72.450079 87.822185 94.752014 140.616598 23.058159 54.431703 34.776038 112.391766 34.776038 172.11601s-11.717879 117.684306-34.776038 172.241876c-22.301935 52.794413-54.17997 100.044554-94.752014 140.616598-40.572044 40.572044-87.948051 72.450079-140.616598 94.752014-54.558593 23.184025-112.518656 34.776038-172.116009 34.650171-59.724243 0-117.684306-11.717879-172.241876-34.776038-52.668547-22.176069-100.044554-54.17997-140.616598-94.752014-40.572044-40.572044-72.450079-87.822185-94.752014-140.616598-23.058159-54.55757-34.776038-112.517633-34.776038-172.241876 0-59.598376 11.717879-117.558439 34.776038-172.116009z m407.484621 578.970274c224.532823 0 406.602531-182.070732 406.602531-406.602532S736.531799 105.585757 512 105.585757c-224.531799 0-406.476665 181.944865-406.602531 406.602531 0 224.532823 182.069709 406.602531 406.602531 406.602532z" fill="#bec4d0" p-id="37386"></path></svg>