<?xml version="1.0" standalone="no"?><!DOCTYPE svg PUBLIC "-//W3C//DTD SVG 1.1//EN" "http://www.w3.org/Graphics/SVG/1.1/DTD/svg11.dtd"><svg t="1543205819602" class="icon" style="" viewBox="0 0 1025 1024" version="1.1" xmlns="http://www.w3.org/2000/svg" p-id="30483" xmlns:xlink="http://www.w3.org/1999/xlink" width="50.048828125" height="50"><defs><style type="text/css"></style></defs><path d="M40.047556 296.464051h945.122333a40.047556 40.047556 0 0 1 40.047557 40.047557 40.047556 40.047556 0 0 1-40.047557 40.047556H40.047556a40.047556 40.047556 0 0 1-40.047556-40.047556 40.047556 40.047556 0 0 1 40.047556-40.047557z" fill="#0a64be" p-id="30484"></path><path d="M985.169889 376.559164H689.018209l-40.039547-40.047556V38.157312l69.130092-25.638446 295.030349 295.022339L985.169889 376.559164z" fill="#0a64be" p-id="30485"></path><path d="M985.169889 336.511608m-40.047556 0a40.047556 40.047556 0 1 0 80.095113 0 40.047556 40.047556 0 1 0-80.095113 0Z" fill="#0a64be" p-id="30486"></path><path d="M689.018209 40.047556m-40.047556 0a40.047556 40.047556 0 1 0 80.095113 0 40.047556 40.047556 0 1 0-80.095113 0Z" fill="#0a64be" p-id="30487"></path><path d="M689.018209 336.511608m-40.047556 0a40.047556 40.047556 0 1 0 80.095113 0 40.047556 40.047556 0 1 0-80.095113 0Z" fill="#0a64be" p-id="30488"></path><path d="M985.169889 727.527939H40.047556a40.047556 40.047556 0 0 1-40.047556-40.047556 40.047556 40.047556 0 0 1 40.047556-40.047557h945.122333a40.047556 40.047556 0 0 1 40.047557 40.047557 40.047556 40.047556 0 0 1-40.047557 40.047556z" fill="#0a64be" p-id="30489"></path><path d="M40.047556 647.432826h296.151681l40.039547 40.047557v298.354296l-69.130092 25.646455L12.078343 716.458795 40.047556 647.432826z" fill="#0a64be" p-id="30490"></path><path d="M40.047556 687.480383m-40.047556 0a40.047556 40.047556 0 1 0 80.095113 0 40.047556 40.047556 0 1 0-80.095113 0Z" fill="#0a64be" p-id="30491"></path><path d="M336.199237 983.952444m-40.047557 0a40.047556 40.047556 0 1 0 80.095113 0 40.047556 40.047556 0 1 0-80.095113 0Z" fill="#0a64be" p-id="30492"></path><path d="M336.199237 687.480383m-40.047557 0a40.047556 40.047556 0 1 0 80.095113 0 40.047556 40.047556 0 1 0-80.095113 0Z" fill="#0a64be" p-id="30493"></path></svg>