<?xml version="1.0" standalone="no"?><!DOCTYPE svg PUBLIC "-//W3C//DTD SVG 1.1//EN" "http://www.w3.org/Graphics/SVG/1.1/DTD/svg11.dtd"><svg t="1542790812214" class="icon" style="" viewBox="0 0 1024 1024" version="1.1" xmlns="http://www.w3.org/2000/svg" p-id="29123" xmlns:xlink="http://www.w3.org/1999/xlink" width="20" height="20"><defs><style type="text/css"></style></defs><path d="M512 70.4a441.6 441.6 0 1 0 0 883.2 441.6 441.6 0 0 0 0-883.2z m0 64a377.6 377.6 0 1 1 0 755.2 377.6 377.6 0 0 1 0-755.2z" fill="#9b9b9e" p-id="29124"></path><path d="M544 480V256a32 32 0 1 0-64 0v230.4c0 31.7952 25.8048 57.6 57.6 57.6H768a32 32 0 1 0 0-64h-224z" fill="#9b9b9e" p-id="29125"></path></svg>