<?xml version="1.0" standalone="no"?><!DOCTYPE svg PUBLIC "-//W3C//DTD SVG 1.1//EN" "http://www.w3.org/Graphics/SVG/1.1/DTD/svg11.dtd"><svg t="1542680007050" class="icon" style="" viewBox="0 0 1024 1024" version="1.1" xmlns="http://www.w3.org/2000/svg" p-id="1727" xmlns:xlink="http://www.w3.org/1999/xlink" width="50" height="50"><defs><style type="text/css"></style></defs><path d="M748.76341676 478.17337619l-199.74355953 0 0-199.74355953-69.29873667 0 0 199.74355953-199.74114716 0 0 65.22361827 199.74114716 0 0 199.74355954 69.29873667 0 0-199.74355954 199.74355953 0L748.76341676 478.17337619z" p-id="1728" fill="#FFFFFF"></path><path d="M508.21558603 1010.09824355c-278.71256128 0-505.46916599-226.7566047-505.46916597-505.46916599s226.7566047-505.46916599 505.46916597-505.46916599 505.46916599 226.7566047 505.469166 505.46916599S786.9281486 1010.09824355 508.21558603 1010.09824355zM508.21558603 18.98298827c-267.79491078 0-485.64608929 217.85117848-485.64608928 485.64608929s217.85117848 485.64608929 485.64608928 485.64608927c267.79491078 0 485.64608929-217.85117848 485.64608928-485.64608927S776.01049683 18.98298827 508.21558603 18.98298827z" p-id="1729" fill="#FFFFFF"></path><path d="M743.84018902 472.59029385l-196.24991111 0 0-196.24749875-68.08512816 0 0 196.24749875-196.24749876 0 0 64.08239213 196.24749876 0 0 196.24749876 68.08512816 0 0-196.24749876 196.24991111 0L743.84018902 472.59029385z" p-id="1730" fill="#FFFFFF"></path></svg>