<?xml version="1.0" standalone="no"?><!DOCTYPE svg PUBLIC "-//W3C//DTD SVG 1.1//EN" "http://www.w3.org/Graphics/SVG/1.1/DTD/svg11.dtd"><svg t="1542509261581" class="icon" style="" viewBox="0 0 1024 1024" version="1.1" xmlns="http://www.w3.org/2000/svg" p-id="1870" xmlns:xlink="http://www.w3.org/1999/xlink" width="50" height="50"><defs><style type="text/css"></style></defs><path d="M876.186669 797.138003 771.197762 659.506346c-19.340062-25.377436-55.461977-30.186869-80.634756-10.744479l-82.578995 63.648246c-66.718097-29.982212-144.283002-76.029979-194.321575-141.622464-46.047767-60.27141-71.118217-130.877985-84.830219-190.637754 2.762866-1.432597 5.423404-3.172179 7.981613-5.116419l91.276906-70.401919c25.172779-19.44239 29.982212-55.666633 10.64215-81.044069L333.743979 85.955831c-19.340062-25.275107-55.461977-30.084541-80.634756-10.64215L161.832317 145.715599c-12.279404 9.516538-19.647047 22.921555-21.795943 37.145198l-0.716299-0.204657c0 0-40.522035 212.945338 160.246228 476.133906 176.516438 231.364445 377.284701 288.770661 423.127811 299.208154 17.088838 5.218747 36.326571 2.251224 51.573499-9.41421l91.276906-70.401919C890.717298 858.739682 895.526731 822.515439 876.186669 797.138003z" p-id="1871" fill="#025fb7"></path></svg>