<?xml version="1.0" standalone="no"?><!DOCTYPE svg PUBLIC "-//W3C//DTD SVG 1.1//EN" "http://www.w3.org/Graphics/SVG/1.1/DTD/svg11.dtd"><svg t="1542509485583" class="icon" style="" viewBox="0 0 1024 1024" version="1.1" xmlns="http://www.w3.org/2000/svg" p-id="10840" xmlns:xlink="http://www.w3.org/1999/xlink" width="50" height="50"><defs><style type="text/css"></style></defs><path d="M512 0C229.184 0 0 229.248 0 512s229.184 512 512 512c282.752 0 512-229.248 512-512S794.752 0 512 0L512 0zM793.856 671.552c-13.248 12.288-35.968-1.088-57.728-31.232-9.472 25.472-21.888 49.152-36.096 70.272 30.848 11.072 50.624 28.224 50.624 47.616 0 33.472-59.264 60.608-132.416 60.608-43.392 0-81.728-9.472-105.984-24.256-24 14.72-62.656 24.256-105.984 24.256-73.216 0-132.416-27.136-132.416-60.608 0-19.136 19.776-36.544 50.624-47.616-14.528-21.12-26.624-44.736-36.096-70.272-21.824 29.952-44.48 43.584-57.728 31.232-18.048-16.96-11.264-76.928 15.68-133.824 6.144-12.992 12.736-24.64 19.648-34.816C269.504 337.6 378.368 204.928 512 204.928l0.384 0c133.632 0 242.496 132.48 246.208 297.984 6.784 10.176 13.504 21.824 19.648 34.816C804.864 594.624 811.968 654.656 793.856 671.552L793.856 671.552z" p-id="10841" fill="#5176b3"></path></svg>