<?xml version="1.0" standalone="no"?><!DOCTYPE svg PUBLIC "-//W3C//DTD SVG 1.1//EN" "http://www.w3.org/Graphics/SVG/1.1/DTD/svg11.dtd"><svg t="1542509432768" class="icon" style="" viewBox="0 0 1025 1024" version="1.1" xmlns="http://www.w3.org/2000/svg" p-id="9072" xmlns:xlink="http://www.w3.org/1999/xlink" width="50.048828125" height="50"><defs><style type="text/css"></style></defs><path d="M511.51488 0C229.01376 0 0 229.01248 0 511.51488c0 282.50112 229.01248 511.51488 511.51488 511.51488 282.50112 0 511.51488-229.01376 511.51488-511.51488C1023.02976 229.01248 794.01728 0 511.51488 0zM712.43392 775.23584c-4.97152 18.53696-21.52448 31.47392-40.7424 31.64928-34.97216 0.32256-69.95072 0.13056-104.92672 0.1408-0.79616 0-1.59104-0.1792-2.91072-0.3392l0-178.7904c-2.25536-0.10496-4-0.25856-5.74464-0.25856-28.6016-0.01536-57.20192 0.0896-85.8048-0.1152-4.5888-0.032-5.7216 1.37728-5.71264 5.80608 0.1344 55.40352 0.0896 110.81088 0.0896 166.21824l0 7.11552c-1.88544 0.15616-3.296 0.37376-4.71296 0.37376-34.15808 0.02048-68.31744 0.14464-102.47552-0.03456-23.13472-0.1216-40.50944-14.6752-44.58624-36.9216-0.46592-2.54976-0.51456-5.20192-0.51712-7.80544-0.0256-59.328-0.0512-118.65856 0.0896-177.98656 0.0064-2.30144 0.99968-5.22112 2.58176-6.80576 63.92192-64.12928 127.9616-128.14208 191.99232-192.15872 0.68352-0.68352 1.42848-1.30688 3.08736-2.81472 1.26208 1.64608 2.1248 3.07712 3.26784 4.22656 65.04704 65.3184 130.10304 130.624 195.22432 195.8656 2.47168 2.47808 3.68896 4.91392 3.6928 8.52736 0.03456 54.91456 0.288 109.83168 0.27136 164.74624C714.59328 762.34112 714.10176 769.02784 712.43392 775.23584zM804.79744 509.72544c-1.37088 1.06112-2.87872 1.984-4.096 3.20128-14.21824 14.19904-28.39424 28.44288-42.816 42.9056-82.0736-82.07872-163.93216-163.93728-245.81632-245.82528-82.36288 82.36928-164.15104 164.16128-246.76096 246.77376-2.72896-3.07712-4.86912-5.73184-7.25888-8.1408-11.86304-11.94624-23.78112-23.84128-35.71584-35.71328-1.22368-1.21344-2.72512-2.14272-4.09984-3.20384l0-0.98176c1.32864-1.16352 2.73152-2.25536 3.97696-3.50464 95.00032-94.97344 189.98912-189.96096 284.96128-284.9664 1.26592-1.26848 2.27072-2.79168 3.51104-4.33664 40.59264 40.59264 80.60416 80.61056 120.61696 120.6272 0.512-0.23936 1.02016-0.47872 1.53088-0.71936l0-66.85184 55.08096 0 0 5.8816c0 37.75232-0.0448 75.50336 0.11136 113.25312 0.0128 2.30016 1.03936 5.20448 2.62656 6.80192 37.20832 37.43872 74.56128 74.73408 111.8976 112.0448 0.67072 0.67072 1.49504 1.18528 2.24896 1.7728L804.79616 509.72544z" p-id="9073" fill="#d20201"></path></svg>