<?xml version="1.0" standalone="no"?><!DOCTYPE svg PUBLIC "-//W3C//DTD SVG 1.1//EN" "http://www.w3.org/Graphics/SVG/1.1/DTD/svg11.dtd"><svg t="1542509463006" class="icon" style="" viewBox="0 0 1024 1024" version="1.1" xmlns="http://www.w3.org/2000/svg" p-id="9928" xmlns:xlink="http://www.w3.org/1999/xlink" width="50" height="50"><defs><style type="text/css"></style></defs><path d="M357.9 360.4c-15.7 0-31.5 10.4-31.5 26.1 0 15.6 15.8 26.1 31.5 26.1s26.1-10.5 26.1-26.1c0-15.8-10.4-26.1-26.1-26.1zM572 511.9c-10.4 0-20.9 10.5-20.9 20.9 0 10.5 10.5 20.9 20.9 20.9 15.9 0 26.2-10.3 26.2-20.9 0-10.4-10.3-20.9-26.2-20.9z m-67.9-99.3c15.8 0 26.2-10.5 26.2-26.1 0-15.7-10.4-26.1-26.2-26.1-15.6 0-31.3 10.3-31.3 26.1 0 15.6 15.7 26.1 31.3 26.1z m0 0" p-id="9929" fill="#54b910"></path><path d="M512 64.2C264.7 64.2 64.2 264.7 64.2 512S264.7 959.8 512 959.8 959.8 759.3 959.8 512 759.3 64.2 512 64.2zM425.8 627c-26.1 0-47-5.3-73.1-10.4l-73 36.6 20.9-62.8c-52.3-36.6-83.6-83.7-83.6-141.1 0-99.4 94.1-177.6 208.9-177.6 102.7 0 192.7 62.5 210.8 146.7-6.7-0.7-13.4-1.2-20.2-1.2-99.2 0-177.5 74.1-177.6 165.3 0 15.2 2.4 29.8 6.5 43.8-6.5 0.4-13 0.7-19.6 0.7z m308.1 73.2l15.7 52.2-57.3-31.4c-20.9 5.2-41.9 10.4-62.7 10.4-99.4 0-177.7-67.8-177.7-151.6 0-83.5 78.2-151.6 177.7-151.6 93.9 0 177.5 68.1 177.5 151.6 0 47.2-31.3 88.9-73.2 120.4z m0 0" p-id="9930" fill="#54b910"></path><path d="M686.9 511.9c-10.3 0-20.8 10.5-20.8 20.9 0 10.5 10.5 20.9 20.8 20.9 15.7 0 26.2-10.3 26.2-20.9 0-10.4-10.5-20.9-26.2-20.9z m0 0" p-id="9931" fill="#54b910"></path></svg>