<?xml version="1.0" standalone="no"?><!DOCTYPE svg PUBLIC "-//W3C//DTD SVG 1.1//EN" "http://www.w3.org/Graphics/SVG/1.1/DTD/svg11.dtd"><svg t="1543205938886" class="icon" style="" viewBox="0 0 1024 1024" version="1.1" xmlns="http://www.w3.org/2000/svg" p-id="46658" xmlns:xlink="http://www.w3.org/1999/xlink" width="50" height="50"><defs><style type="text/css"></style></defs><path d="M411.2 469.6c29.5-3.3 53.3-25.4 59.1-54.1V90.6c-6.5-30.9-33.8-54.1-66.6-54.1h-0.5v-0.1H349v-0.1H98.6c-35.3 2.5-63.3 31.9-63.3 67.9v0.5h-0.1v54.1h-0.1v246c1.8 36 31.6 64.5 68 64.5h0.5v0.1h307.6z m-294.2-82V118.3h271.4v269.4H117z" fill="#0a64be" p-id="46659"></path><path d="M389.3 387.8h-40.9 16.2c13.8-0.8 24.7-12.2 24.7-26.2v26.2zM116.8 388.6v-40.9 16.2c0.8 13.8 12.2 24.7 26.2 24.7h-26.2zM116.7 118h40.9-16.2c-13.8 0.8-24.7 12.2-24.7 26.2V118zM388.8 118v40.9-16.2c-0.8-13.8-12.2-24.7-26.2-24.7h26.2z" fill="#0a64be" p-id="46660"></path><path d="M927.2 469.6c29.5-3.3 53.3-25.4 59.1-54.1V90.6c-6.5-30.9-33.8-54.1-66.6-54.1h-0.5v-0.1H865v-0.1H614.6c-35.3 2.5-63.3 31.9-63.3 67.9v0.5h-0.1v54.1h-0.1v246c1.8 36 31.6 64.5 68 64.5h0.5v0.1h307.6z m-294.2-82V118.3h271.4v269.4H633z" fill="#0a64be" p-id="46661"></path><path d="M905.3 387.8h-40.9 16.2c13.8-0.8 24.7-12.2 24.7-26.2v26.2zM632.7 388.6v-40.9 16.2c0.8 13.8 12.2 24.7 26.2 24.7h-26.2zM632.6 118h40.9-16.2c-13.8 0.8-24.7 12.2-24.7 26.2V118zM904.7 118v40.9-16.2c-0.8-13.8-12.2-24.7-26.2-24.7h26.2z" fill="#0a64be" p-id="46662"></path><path d="M411.2 984c29.5-3.3 53.3-25.4 59.1-54.1V605.1c-6.5-30.9-33.8-54.1-66.6-54.1H349v-0.1H98.6c-35.3 2.5-63.3 31.9-63.3 67.9v0.5h-0.1v54.1h-0.1v246c1.8 36 31.6 64.5 68 64.5h0.5v0.1h307.6zM117 902.1V632.8h271.4v269.4H117z" fill="#0a64be" p-id="46663"></path><path d="M389.3 902.3h-40.9 16.2c13.8-0.8 24.7-12.2 24.7-26.2v26.2zM116.8 903.1v-40.9 16.2c0.8 13.8 12.2 24.7 26.2 24.7h-26.2zM116.7 632.5h40.9-16.2c-13.8 0.8-24.7 12.2-24.7 26.2v-26.2zM388.8 632.5v40.9-16.2c-0.8-13.8-12.2-24.7-26.2-24.7h26.2z" fill="#0a64be" p-id="46664"></path><path d="M927.2 984c29.5-3.3 53.3-25.4 59.1-54.1V605.1c-6.5-30.9-33.8-54.1-66.6-54.1H865v-0.1H614.6c-35.3 2.5-63.3 31.9-63.3 67.9v0.5h-0.1v54.1h-0.1v246c1.8 36 31.6 64.5 68 64.5h0.5v0.1h307.6zM633 902.1V632.8h271.4v269.4H633z" fill="#0a64be" p-id="46665"></path><path d="M905.3 902.3h-40.9 16.2c13.8-0.8 24.7-12.2 24.7-26.2v26.2zM632.7 903.1v-40.9 16.2c0.8 13.8 12.2 24.7 26.2 24.7h-26.2zM632.6 632.5h40.9-16.2c-13.8 0.8-24.7 12.2-24.7 26.2v-26.2zM904.7 632.5v40.9-16.2c-0.8-13.8-12.2-24.7-26.2-24.7h26.2z" fill="#0a64be" p-id="46666"></path></svg>